<svg viewBox="0 0 903.396 1064.882" xmlns="http://www.w3.org/2000/svg">
  <path stroke="#ffffff" d="M642.617 21.333h121.06v329.045h-121.06c-66.828-.078-120.982-54.23-121.06-121.052v-86.933c.078-66.828 54.23-120.982 121.052-121.06h.006zM695.41 89.6h-52.793c-29.146.026-52.767 23.647-52.793 52.79v86.93c.026 29.145 23.647 52.766 52.79 52.792h52.795zm207.986 43.235H729.544V64.568h173.852zm0 173.853H729.544V238.42h173.852zm-444.19 69.54v278.165H275.07zm-24.575 443.506V542.89h184.913zm12.29 225.6C200.09 1045.333 0 845.24 0 598.413s200.093-446.92 446.92-446.92h108.77v68.268H446.92c-209.125 0-378.653 169.528-378.653 378.652S237.795 977.066 446.92 977.066c209.123 0 378.65-169.528 378.65-378.652h68.268c-.285 246.712-200.208 446.635-446.892 446.92h-.027z" />
</svg>