<svg viewBox="0 0 1024 1064.882" xmlns="http://www.w3.org/2000/svg"><path d="M692.13 21.333h112.176v313.25H692.13c-61.92-.078-112.094-50.253-112.174-112.166v-88.91c.08-61.92 50.254-112.095 112.167-112.175h.008zm65.63 46.545h-65.63c-36.224.053-65.575 29.404-65.628 65.624v88.907c.053 36.224 29.404 65.575 65.624 65.628h65.634zm201.076 44.22H781.032V65.55h177.804zm0 177.802H781.032v-46.545h177.804zm-465.92 121.437v234.17H337.873zM446.37 598.962v-33.047l-21.83 33zm44.685 188.928V554.744H646.75zm46.545-186.6v33.093l22.11-33.094zm-45.615 444.043c-246.01 0-445.44-199.43-445.44-445.44s199.43-445.44 445.44-445.44H603.23v46.545H491.984c-220.303 0-398.895 178.59-398.895 398.895s178.59 398.895 398.895 398.895c220.303 0 398.895-178.59 398.895-398.895h46.545c-.29 245.892-199.547 445.15-445.412 445.44h-.028z"/></svg>